<svg version="1.1" xmlns="http://www.w3.org/2000/svg" viewBox="0 0 132.45498280898028 78.72032388585527" width="132.45498280898028" height="78.72032388585527">
  <!-- svg-source:excalidraw -->
  
  <defs>
    <style>
      @font-face {
        font-family: "Virgil";
        src: url("https://excalidraw.com/Virgil.woff2");
      }
      @font-face {
        font-family: "Cascadia";
        src: url("https://excalidraw.com/Cascadia.woff2");
      }
    </style>
  </defs>
  <g stroke-linecap="round" transform="translate(18.982237373328644 16.234321962509142) rotate(0 47.30646225985811 26.24300096167306)"><path d="M13.12 0 L81.49 0 L89.49 1.85 L92.77 5.13 L94.41 10.05 L94.61 39.36 L92.77 47.36 L91.33 49.21 L87.23 51.67 L81.49 52.49 L13.12 52.49 L5.13 50.64 L1.85 47.36 L0.21 42.44 L0.21 10.05 L0.82 7.38 L3.28 3.28 L7.38 0.82 L13.12 0" stroke="none" stroke-width="0" fill="#34a853"></path><path d="M13.12 0 M13.12 0 C39.94 0, 66.75 0, 81.49 0 M13.12 0 C38.42 0, 63.72 0, 81.49 0 M81.49 0 C90.24 0, 94.61 4.37, 94.61 13.12 M81.49 0 C90.24 0, 94.61 4.37, 94.61 13.12 M94.61 13.12 C94.61 22.12, 94.61 31.12, 94.61 39.36 M94.61 13.12 C94.61 21.1, 94.61 29.07, 94.61 39.36 M94.61 39.36 C94.61 48.11, 90.24 52.49, 81.49 52.49 M94.61 39.36 C94.61 48.11, 90.24 52.49, 81.49 52.49 M81.49 52.49 C62.56 52.49, 43.64 52.49, 13.12 52.49 M81.49 52.49 C62.07 52.49, 42.65 52.49, 13.12 52.49 M13.12 52.49 C4.37 52.49, 0 48.11, 0 39.36 M13.12 52.49 C4.37 52.49, 0 48.11, 0 39.36 M0 39.36 C0 33.1, 0 26.83, 0 13.12 M0 39.36 C0 29.69, 0 20.02, 0 13.12 M0 13.12 C0 4.37, 4.37 0, 13.12 0 M0 13.12 C0 4.37, 4.37 0, 13.12 0" stroke="#34a853" stroke-width="4" fill="none"></path></g><g stroke-linecap="round" transform="translate(57.638964894146056 38.42905639094644) rotate(27.6995710105276 11.40490986218947 11.637663124683144)"><path d="M22.81 11.64 C22.81 12.31, 22.75 13, 22.64 13.66 C22.52 14.32, 22.35 14.98, 22.12 15.62 C21.9 16.25, 21.61 16.87, 21.28 17.46 C20.95 18.04, 20.57 18.6, 20.14 19.12 C19.72 19.63, 19.24 20.12, 18.74 20.55 C18.23 20.99, 17.68 21.38, 17.11 21.72 C16.54 22.05, 15.93 22.34, 15.31 22.57 C14.69 22.8, 14.04 22.98, 13.39 23.1 C12.74 23.22, 12.07 23.28, 11.4 23.28 C10.74 23.28, 10.07 23.22, 9.42 23.1 C8.77 22.98, 8.12 22.8, 7.5 22.57 C6.88 22.34, 6.27 22.05, 5.7 21.72 C5.13 21.38, 4.58 20.99, 4.07 20.55 C3.57 20.12, 3.09 19.63, 2.67 19.12 C2.24 18.6, 1.86 18.04, 1.53 17.46 C1.2 16.87, 0.91 16.25, 0.69 15.62 C0.46 14.98, 0.29 14.32, 0.17 13.66 C0.06 13, 0 12.31, 0 11.64 C0 10.96, 0.06 10.28, 0.17 9.62 C0.29 8.95, 0.46 8.29, 0.69 7.66 C0.91 7.02, 1.2 6.4, 1.53 5.82 C1.86 5.24, 2.24 4.67, 2.67 4.16 C3.09 3.64, 3.57 3.16, 4.07 2.72 C4.58 2.29, 5.13 1.9, 5.7 1.56 C6.27 1.22, 6.88 0.93, 7.5 0.7 C8.12 0.47, 8.77 0.29, 9.42 0.18 C10.07 0.06, 10.74 0, 11.4 0 C12.07 0, 12.74 0.06, 13.39 0.18 C14.04 0.29, 14.69 0.47, 15.31 0.7 C15.93 0.93, 16.54 1.22, 17.11 1.56 C17.68 1.9, 18.23 2.29, 18.74 2.72 C19.24 3.16, 19.72 3.64, 20.14 4.16 C20.57 4.67, 20.95 5.24, 21.28 5.82 C21.61 6.4, 21.9 7.02, 22.12 7.66 C22.35 8.29, 22.52 8.95, 22.64 9.62 C22.75 10.28, 22.78 11.3, 22.81 11.64 C22.84 11.97, 22.84 11.3, 22.81 11.64" stroke="none" stroke-width="0" fill="#000"></path><path d="M22.81 11.64 C22.81 12.31, 22.75 13, 22.64 13.66 C22.52 14.32, 22.35 14.98, 22.12 15.62 C21.9 16.25, 21.61 16.87, 21.28 17.46 C20.95 18.04, 20.57 18.6, 20.14 19.12 C19.72 19.63, 19.24 20.12, 18.74 20.55 C18.23 20.99, 17.68 21.38, 17.11 21.72 C16.54 22.05, 15.93 22.34, 15.31 22.57 C14.69 22.8, 14.04 22.98, 13.39 23.1 C12.74 23.22, 12.07 23.28, 11.4 23.28 C10.74 23.28, 10.07 23.22, 9.42 23.1 C8.77 22.98, 8.12 22.8, 7.5 22.57 C6.88 22.34, 6.27 22.05, 5.7 21.72 C5.13 21.38, 4.58 20.99, 4.07 20.55 C3.57 20.12, 3.09 19.63, 2.67 19.12 C2.24 18.6, 1.86 18.04, 1.53 17.46 C1.2 16.87, 0.91 16.25, 0.69 15.62 C0.46 14.98, 0.29 14.32, 0.17 13.66 C0.06 13, 0 12.31, 0 11.64 C0 10.96, 0.06 10.28, 0.17 9.62 C0.29 8.95, 0.46 8.29, 0.69 7.66 C0.91 7.02, 1.2 6.4, 1.53 5.82 C1.86 5.24, 2.24 4.67, 2.67 4.16 C3.09 3.64, 3.57 3.16, 4.07 2.72 C4.58 2.29, 5.13 1.9, 5.7 1.56 C6.27 1.22, 6.88 0.93, 7.5 0.7 C8.12 0.47, 8.77 0.29, 9.42 0.18 C10.07 0.06, 10.74 0, 11.4 0 C12.07 0, 12.74 0.06, 13.39 0.18 C14.04 0.29, 14.69 0.47, 15.31 0.7 C15.93 0.93, 16.54 1.22, 17.11 1.56 C17.68 1.9, 18.23 2.29, 18.74 2.72 C19.24 3.16, 19.72 3.64, 20.14 4.16 C20.57 4.67, 20.95 5.24, 21.28 5.82 C21.61 6.4, 21.9 7.02, 22.12 7.66 C22.35 8.29, 22.52 8.95, 22.64 9.62 C22.75 10.28, 22.78 11.3, 22.81 11.64 C22.84 11.97, 22.84 11.3, 22.81 11.64" stroke="#000" stroke-width="4" fill="none"></path></g><g stroke-linecap="round" transform="translate(54.66120103458138 30.676065142280635) rotate(0 15.012637644986057 12.457871610007828)"><path d="M30.03 12.46 C30.03 13.18, 29.95 13.91, 29.8 14.62 C29.65 15.33, 29.42 16.04, 29.12 16.72 C28.82 17.4, 28.45 18.06, 28.01 18.69 C27.58 19.31, 27.07 19.91, 26.51 20.47 C25.95 21.02, 25.33 21.54, 24.66 22 C24 22.46, 23.27 22.89, 22.52 23.25 C21.77 23.61, 20.96 23.92, 20.15 24.16 C19.33 24.41, 18.48 24.6, 17.62 24.73 C16.76 24.85, 15.88 24.92, 15.01 24.92 C14.14 24.92, 13.26 24.85, 12.41 24.73 C11.55 24.6, 10.69 24.41, 9.88 24.16 C9.06 23.92, 8.26 23.61, 7.51 23.25 C6.75 22.89, 6.03 22.46, 5.36 22 C4.7 21.54, 4.07 21.02, 3.51 20.47 C2.95 19.91, 2.45 19.31, 2.01 18.69 C1.58 18.06, 1.2 17.4, 0.91 16.72 C0.61 16.04, 0.38 15.33, 0.23 14.62 C0.08 13.91, 0 13.18, 0 12.46 C0 11.74, 0.08 11, 0.23 10.29 C0.38 9.58, 0.61 8.87, 0.91 8.2 C1.2 7.52, 1.58 6.85, 2.01 6.23 C2.45 5.6, 2.95 5, 3.51 4.45 C4.07 3.9, 4.7 3.38, 5.36 2.91 C6.03 2.45, 6.75 2.03, 7.51 1.67 C8.26 1.31, 9.06 1, 9.88 0.75 C10.69 0.5, 11.55 0.31, 12.41 0.19 C13.26 0.06, 14.14 0, 15.01 0 C15.88 0, 16.76 0.06, 17.62 0.19 C18.48 0.31, 19.33 0.5, 20.15 0.75 C20.96 1, 21.77 1.31, 22.52 1.67 C23.27 2.03, 24 2.45, 24.66 2.91 C25.33 3.38, 25.95 3.9, 26.51 4.45 C27.07 5, 27.58 5.6, 28.01 6.23 C28.45 6.85, 28.82 7.52, 29.12 8.2 C29.42 8.87, 29.65 9.58, 29.8 10.29 C29.95 11, 29.99 12.1, 30.03 12.46 C30.06 12.82, 30.06 12.1, 30.03 12.46" stroke="none" stroke-width="0" fill="#34a853"></path><path d="M30.03 12.46 C30.03 13.18, 29.95 13.91, 29.8 14.62 C29.65 15.33, 29.42 16.04, 29.12 16.72 C28.82 17.4, 28.45 18.06, 28.01 18.69 C27.58 19.31, 27.07 19.91, 26.51 20.47 C25.95 21.02, 25.33 21.54, 24.66 22 C24 22.46, 23.27 22.89, 22.52 23.25 C21.77 23.61, 20.96 23.92, 20.15 24.16 C19.33 24.41, 18.48 24.6, 17.62 24.73 C16.76 24.85, 15.88 24.92, 15.01 24.92 C14.14 24.92, 13.26 24.85, 12.41 24.73 C11.55 24.6, 10.69 24.41, 9.88 24.16 C9.06 23.92, 8.26 23.61, 7.51 23.25 C6.75 22.89, 6.03 22.46, 5.36 22 C4.7 21.54, 4.07 21.02, 3.51 20.47 C2.95 19.91, 2.45 19.31, 2.01 18.69 C1.58 18.06, 1.2 17.4, 0.91 16.72 C0.61 16.04, 0.38 15.33, 0.23 14.62 C0.08 13.91, 0 13.18, 0 12.46 C0 11.74, 0.08 11, 0.23 10.29 C0.38 9.58, 0.61 8.87, 0.91 8.2 C1.2 7.52, 1.58 6.85, 2.01 6.23 C2.45 5.6, 2.95 5, 3.51 4.45 C4.07 3.9, 4.7 3.38, 5.36 2.91 C6.03 2.45, 6.75 2.03, 7.51 1.67 C8.26 1.31, 9.06 1, 9.88 0.75 C10.69 0.5, 11.55 0.31, 12.41 0.19 C13.26 0.06, 14.14 0, 15.01 0 C15.88 0, 16.76 0.06, 17.62 0.19 C18.48 0.31, 19.33 0.5, 20.15 0.75 C20.96 1, 21.77 1.31, 22.52 1.67 C23.27 2.03, 24 2.45, 24.66 2.91 C25.33 3.38, 25.95 3.9, 26.51 4.45 C27.07 5, 27.58 5.6, 28.01 6.23 C28.45 6.85, 28.82 7.52, 29.12 8.2 C29.42 8.87, 29.65 9.58, 29.8 10.29 C29.95 11, 29.99 12.1, 30.03 12.46 C30.06 12.82, 30.06 12.1, 30.03 12.46" stroke="#34a853" stroke-width="1" fill="none"></path></g><g stroke-linecap="round" transform="translate(26.50749636540172 24.862196522884034) rotate(0 13.092422880314302 13.35961518399418)"><path d="M26.18 13.36 C26.18 14.13, 26.12 14.92, 25.99 15.68 C25.85 16.44, 25.65 17.2, 25.4 17.93 C25.14 18.66, 24.81 19.37, 24.43 20.04 C24.05 20.71, 23.61 21.35, 23.12 21.95 C22.63 22.54, 22.09 23.1, 21.51 23.59 C20.93 24.09, 20.29 24.54, 19.64 24.93 C18.98 25.32, 18.28 25.65, 17.57 25.91 C16.86 26.18, 16.11 26.38, 15.37 26.52 C14.62 26.65, 13.85 26.72, 13.09 26.72 C12.33 26.72, 11.57 26.65, 10.82 26.52 C10.07 26.38, 9.33 26.18, 8.61 25.91 C7.9 25.65, 7.2 25.32, 6.55 24.93 C5.89 24.54, 5.26 24.09, 4.68 23.59 C4.1 23.1, 3.55 22.54, 3.06 21.95 C2.58 21.35, 2.13 20.71, 1.75 20.04 C1.38 19.37, 1.05 18.66, 0.79 17.93 C0.53 17.2, 0.33 16.44, 0.2 15.68 C0.07 14.92, 0 14.13, 0 13.36 C0 12.59, 0.07 11.8, 0.2 11.04 C0.33 10.28, 0.53 9.52, 0.79 8.79 C1.05 8.06, 1.38 7.35, 1.75 6.68 C2.13 6.01, 2.58 5.36, 3.06 4.77 C3.55 4.18, 4.1 3.62, 4.68 3.13 C5.26 2.63, 5.89 2.18, 6.55 1.79 C7.2 1.4, 7.9 1.07, 8.61 0.81 C9.33 0.54, 10.07 0.34, 10.82 0.2 C11.57 0.07, 12.33 0, 13.09 0 C13.85 0, 14.62 0.07, 15.37 0.2 C16.11 0.34, 16.86 0.54, 17.57 0.81 C18.28 1.07, 18.98 1.4, 19.64 1.79 C20.29 2.18, 20.93 2.63, 21.51 3.13 C22.09 3.62, 22.63 4.18, 23.12 4.77 C23.61 5.36, 24.05 6.01, 24.43 6.68 C24.81 7.35, 25.14 8.06, 25.4 8.79 C25.65 9.52, 25.85 10.28, 25.99 11.04 C26.12 11.8, 26.15 12.97, 26.18 13.36 C26.22 13.75, 26.22 12.97, 26.18 13.36" stroke="none" stroke-width="0" fill="#000"></path><path d="M26.18 13.36 C26.18 14.13, 26.12 14.92, 25.99 15.68 C25.85 16.44, 25.65 17.2, 25.4 17.93 C25.14 18.66, 24.81 19.37, 24.43 20.04 C24.05 20.71, 23.61 21.35, 23.12 21.95 C22.63 22.54, 22.09 23.1, 21.51 23.59 C20.93 24.09, 20.29 24.54, 19.64 24.93 C18.98 25.32, 18.28 25.65, 17.57 25.91 C16.86 26.18, 16.11 26.38, 15.37 26.52 C14.62 26.65, 13.85 26.72, 13.09 26.72 C12.33 26.72, 11.57 26.65, 10.82 26.52 C10.07 26.38, 9.33 26.18, 8.61 25.91 C7.9 25.65, 7.2 25.32, 6.55 24.93 C5.89 24.54, 5.26 24.09, 4.68 23.59 C4.1 23.1, 3.55 22.54, 3.06 21.95 C2.58 21.35, 2.13 20.71, 1.75 20.04 C1.38 19.37, 1.05 18.66, 0.79 17.93 C0.53 17.2, 0.33 16.44, 0.2 15.68 C0.07 14.92, 0 14.13, 0 13.36 C0 12.59, 0.07 11.8, 0.2 11.04 C0.33 10.28, 0.53 9.52, 0.79 8.79 C1.05 8.06, 1.38 7.35, 1.75 6.68 C2.13 6.01, 2.58 5.36, 3.06 4.77 C3.55 4.18, 4.1 3.62, 4.68 3.13 C5.26 2.63, 5.89 2.18, 6.55 1.79 C7.2 1.4, 7.9 1.07, 8.61 0.81 C9.33 0.54, 10.07 0.34, 10.82 0.2 C11.57 0.07, 12.33 0, 13.09 0 C13.85 0, 14.62 0.07, 15.37 0.2 C16.11 0.34, 16.86 0.54, 17.57 0.81 C18.28 1.07, 18.98 1.4, 19.64 1.79 C20.29 2.18, 20.93 2.63, 21.51 3.13 C22.09 3.62, 22.63 4.18, 23.12 4.77 C23.61 5.36, 24.05 6.01, 24.43 6.68 C24.81 7.35, 25.14 8.06, 25.4 8.79 C25.65 9.52, 25.85 10.28, 25.99 11.04 C26.12 11.8, 26.15 12.97, 26.18 13.36 C26.22 13.75, 26.22 12.97, 26.18 13.36" stroke="#ffff" stroke-width="4" fill="none"></path></g><g stroke-linecap="round" transform="translate(40.619613435274005 26.518837707846814) rotate(0 4.2711058165904205 4.954306325314803)"><path d="M8.54 4.95 C8.54 5.24, 8.52 5.53, 8.48 5.81 C8.43 6.1, 8.37 6.38, 8.28 6.65 C8.2 6.92, 8.09 7.18, 7.97 7.43 C7.85 7.68, 7.7 7.92, 7.54 8.14 C7.38 8.36, 7.21 8.57, 7.02 8.75 C6.83 8.93, 6.62 9.1, 6.41 9.24 C6.19 9.39, 5.96 9.51, 5.73 9.61 C5.5 9.71, 5.26 9.78, 5.01 9.83 C4.77 9.88, 4.52 9.91, 4.27 9.91 C4.02 9.91, 3.77 9.88, 3.53 9.83 C3.29 9.78, 3.04 9.71, 2.81 9.61 C2.58 9.51, 2.35 9.39, 2.14 9.24 C1.92 9.1, 1.72 8.93, 1.53 8.75 C1.34 8.57, 1.16 8.36, 1 8.14 C0.84 7.92, 0.7 7.68, 0.57 7.43 C0.45 7.18, 0.34 6.92, 0.26 6.65 C0.17 6.38, 0.11 6.1, 0.06 5.81 C0.02 5.53, 0 5.24, 0 4.95 C0 4.67, 0.02 4.38, 0.06 4.09 C0.11 3.81, 0.17 3.53, 0.26 3.26 C0.34 2.99, 0.45 2.73, 0.57 2.48 C0.7 2.23, 0.84 1.99, 1 1.77 C1.16 1.55, 1.34 1.34, 1.53 1.16 C1.72 0.97, 1.92 0.81, 2.14 0.66 C2.35 0.52, 2.58 0.4, 2.81 0.3 C3.04 0.2, 3.29 0.13, 3.53 0.08 C3.77 0.03, 4.02 0, 4.27 0 C4.52 0, 4.77 0.03, 5.01 0.08 C5.26 0.13, 5.5 0.2, 5.73 0.3 C5.96 0.4, 6.19 0.52, 6.41 0.66 C6.62 0.81, 6.83 0.97, 7.02 1.16 C7.21 1.34, 7.38 1.55, 7.54 1.77 C7.7 1.99, 7.85 2.23, 7.97 2.48 C8.09 2.73, 8.2 2.99, 8.28 3.26 C8.37 3.53, 8.43 3.81, 8.48 4.09 C8.52 4.38, 8.53 4.81, 8.54 4.95 C8.55 5.1, 8.55 4.81, 8.54 4.95" stroke="none" stroke-width="0" fill="#fff"></path><path d="M8.54 4.95 C8.54 5.24, 8.52 5.53, 8.48 5.81 C8.43 6.1, 8.37 6.38, 8.28 6.65 C8.2 6.92, 8.09 7.18, 7.97 7.43 C7.85 7.68, 7.7 7.92, 7.54 8.14 C7.38 8.36, 7.21 8.57, 7.02 8.75 C6.83 8.93, 6.62 9.1, 6.41 9.24 C6.19 9.39, 5.96 9.51, 5.73 9.61 C5.5 9.71, 5.26 9.78, 5.01 9.83 C4.77 9.88, 4.52 9.91, 4.27 9.91 C4.02 9.91, 3.77 9.88, 3.53 9.83 C3.29 9.78, 3.04 9.71, 2.81 9.61 C2.58 9.51, 2.35 9.39, 2.14 9.24 C1.92 9.1, 1.72 8.93, 1.53 8.75 C1.34 8.57, 1.16 8.36, 1 8.14 C0.84 7.92, 0.7 7.68, 0.57 7.43 C0.45 7.18, 0.34 6.92, 0.26 6.65 C0.17 6.38, 0.11 6.1, 0.06 5.81 C0.02 5.53, 0 5.24, 0 4.95 C0 4.67, 0.02 4.38, 0.06 4.09 C0.11 3.81, 0.17 3.53, 0.26 3.26 C0.34 2.99, 0.45 2.73, 0.57 2.48 C0.7 2.23, 0.84 1.99, 1 1.77 C1.16 1.55, 1.34 1.34, 1.53 1.16 C1.72 0.97, 1.92 0.81, 2.14 0.66 C2.35 0.52, 2.58 0.4, 2.81 0.3 C3.04 0.2, 3.29 0.13, 3.53 0.08 C3.77 0.03, 4.02 0, 4.27 0 C4.52 0, 4.77 0.03, 5.01 0.08 C5.26 0.13, 5.5 0.2, 5.73 0.3 C5.96 0.4, 6.19 0.52, 6.41 0.66 C6.62 0.81, 6.83 0.97, 7.02 1.16 C7.21 1.34, 7.38 1.55, 7.54 1.77 C7.7 1.99, 7.85 2.23, 7.97 2.48 C8.09 2.73, 8.2 2.99, 8.28 3.26 C8.37 3.53, 8.43 3.81, 8.48 4.09 C8.52 4.38, 8.53 4.81, 8.54 4.95 C8.55 5.1, 8.55 4.81, 8.54 4.95" stroke="#ffff" stroke-width="4" fill="none"></path></g><g stroke-linecap="round" transform="translate(82.50566602172103 25.777930537462197) rotate(0 13.092422880314302 13.35961518399418)"><path d="M26.18 13.36 C26.18 14.13, 26.12 14.92, 25.99 15.68 C25.85 16.44, 25.65 17.2, 25.4 17.93 C25.14 18.66, 24.81 19.37, 24.43 20.04 C24.05 20.71, 23.61 21.35, 23.12 21.95 C22.63 22.54, 22.09 23.1, 21.51 23.59 C20.93 24.09, 20.29 24.54, 19.64 24.93 C18.98 25.32, 18.28 25.65, 17.57 25.91 C16.86 26.18, 16.11 26.38, 15.37 26.52 C14.62 26.65, 13.85 26.72, 13.09 26.72 C12.33 26.72, 11.57 26.65, 10.82 26.52 C10.07 26.38, 9.33 26.18, 8.61 25.91 C7.9 25.65, 7.2 25.32, 6.55 24.93 C5.89 24.54, 5.26 24.09, 4.68 23.59 C4.1 23.1, 3.55 22.54, 3.06 21.95 C2.58 21.35, 2.13 20.71, 1.75 20.04 C1.38 19.37, 1.05 18.66, 0.79 17.93 C0.53 17.2, 0.33 16.44, 0.2 15.68 C0.07 14.92, 0 14.13, 0 13.36 C0 12.59, 0.07 11.8, 0.2 11.04 C0.33 10.28, 0.53 9.52, 0.79 8.79 C1.05 8.06, 1.38 7.35, 1.75 6.68 C2.13 6.01, 2.58 5.36, 3.06 4.77 C3.55 4.18, 4.1 3.62, 4.68 3.13 C5.26 2.63, 5.89 2.18, 6.55 1.79 C7.2 1.4, 7.9 1.07, 8.61 0.81 C9.33 0.54, 10.07 0.34, 10.82 0.2 C11.57 0.07, 12.33 0, 13.09 0 C13.85 0, 14.62 0.07, 15.37 0.2 C16.11 0.34, 16.86 0.54, 17.57 0.81 C18.28 1.07, 18.98 1.4, 19.64 1.79 C20.29 2.18, 20.93 2.63, 21.51 3.13 C22.09 3.62, 22.63 4.18, 23.12 4.77 C23.61 5.36, 24.05 6.01, 24.43 6.68 C24.81 7.35, 25.14 8.06, 25.4 8.79 C25.65 9.52, 25.85 10.28, 25.99 11.04 C26.12 11.8, 26.15 12.97, 26.18 13.36 C26.22 13.75, 26.22 12.97, 26.18 13.36" stroke="none" stroke-width="0" fill="#000"></path><path d="M26.18 13.36 C26.18 14.13, 26.12 14.92, 25.99 15.68 C25.85 16.44, 25.65 17.2, 25.4 17.93 C25.14 18.66, 24.81 19.37, 24.43 20.04 C24.05 20.71, 23.61 21.35, 23.12 21.95 C22.63 22.54, 22.09 23.1, 21.51 23.59 C20.93 24.09, 20.29 24.54, 19.64 24.93 C18.98 25.32, 18.28 25.65, 17.57 25.91 C16.86 26.18, 16.11 26.38, 15.37 26.52 C14.62 26.65, 13.85 26.72, 13.09 26.72 C12.33 26.72, 11.57 26.65, 10.82 26.52 C10.07 26.38, 9.33 26.18, 8.61 25.91 C7.9 25.65, 7.2 25.32, 6.55 24.93 C5.89 24.54, 5.26 24.09, 4.68 23.59 C4.1 23.1, 3.55 22.54, 3.06 21.95 C2.58 21.35, 2.13 20.71, 1.75 20.04 C1.38 19.37, 1.05 18.66, 0.79 17.93 C0.53 17.2, 0.33 16.44, 0.2 15.68 C0.07 14.92, 0 14.13, 0 13.36 C0 12.59, 0.07 11.8, 0.2 11.04 C0.33 10.28, 0.53 9.52, 0.79 8.79 C1.05 8.06, 1.38 7.35, 1.75 6.68 C2.13 6.01, 2.58 5.36, 3.06 4.77 C3.55 4.18, 4.1 3.62, 4.68 3.13 C5.26 2.63, 5.89 2.18, 6.55 1.79 C7.2 1.4, 7.9 1.07, 8.61 0.81 C9.33 0.54, 10.07 0.34, 10.82 0.2 C11.57 0.07, 12.33 0, 13.09 0 C13.85 0, 14.62 0.07, 15.37 0.2 C16.11 0.34, 16.86 0.54, 17.57 0.81 C18.28 1.07, 18.98 1.4, 19.64 1.79 C20.29 2.18, 20.93 2.63, 21.51 3.13 C22.09 3.62, 22.63 4.18, 23.12 4.77 C23.61 5.36, 24.05 6.01, 24.43 6.68 C24.81 7.35, 25.14 8.06, 25.4 8.79 C25.65 9.52, 25.85 10.28, 25.99 11.04 C26.12 11.8, 26.15 12.97, 26.18 13.36 C26.22 13.75, 26.22 12.97, 26.18 13.36" stroke="#ffff" stroke-width="4" fill="none"></path></g><g stroke-linecap="round" transform="translate(94.46752788259823 27.434571722424977) rotate(0 5.346233421087845 5.107895983100178)"><path d="M10.69 5.11 C10.69 5.4, 10.66 5.7, 10.61 5.99 C10.56 6.29, 10.48 6.58, 10.37 6.85 C10.26 7.13, 10.13 7.41, 9.98 7.66 C9.82 7.92, 9.64 8.16, 9.44 8.39 C9.24 8.62, 9.02 8.83, 8.78 9.02 C8.55 9.21, 8.29 9.38, 8.02 9.53 C7.75 9.68, 7.47 9.81, 7.17 9.91 C6.88 10.01, 6.58 10.09, 6.27 10.14 C5.97 10.19, 5.66 10.22, 5.35 10.22 C5.04 10.22, 4.72 10.19, 4.42 10.14 C4.11 10.09, 3.81 10.01, 3.52 9.91 C3.23 9.81, 2.94 9.68, 2.67 9.53 C2.41 9.38, 2.15 9.21, 1.91 9.02 C1.67 8.83, 1.45 8.62, 1.25 8.39 C1.05 8.16, 0.87 7.92, 0.72 7.66 C0.56 7.41, 0.43 7.13, 0.32 6.85 C0.22 6.58, 0.13 6.29, 0.08 5.99 C0.03 5.7, 0 5.4, 0 5.11 C0 4.81, 0.03 4.51, 0.08 4.22 C0.13 3.93, 0.22 3.64, 0.32 3.36 C0.43 3.08, 0.56 2.81, 0.72 2.55 C0.87 2.3, 1.05 2.05, 1.25 1.82 C1.45 1.6, 1.67 1.39, 1.91 1.2 C2.15 1, 2.41 0.83, 2.67 0.68 C2.94 0.54, 3.23 0.41, 3.52 0.31 C3.81 0.21, 4.11 0.13, 4.42 0.08 C4.72 0.03, 5.04 0, 5.35 0 C5.66 0, 5.97 0.03, 6.27 0.08 C6.58 0.13, 6.88 0.21, 7.17 0.31 C7.47 0.41, 7.75 0.54, 8.02 0.68 C8.29 0.83, 8.55 1, 8.78 1.2 C9.02 1.39, 9.24 1.6, 9.44 1.82 C9.64 2.05, 9.82 2.3, 9.98 2.55 C10.13 2.81, 10.26 3.08, 10.37 3.36 C10.48 3.64, 10.56 3.93, 10.61 4.22 C10.66 4.51, 10.68 4.96, 10.69 5.11 C10.71 5.26, 10.71 4.96, 10.69 5.11" stroke="none" stroke-width="0" fill="#fff"></path><path d="M10.69 5.11 C10.69 5.4, 10.66 5.7, 10.61 5.99 C10.56 6.29, 10.48 6.58, 10.37 6.85 C10.26 7.13, 10.13 7.41, 9.98 7.66 C9.82 7.92, 9.64 8.16, 9.44 8.39 C9.24 8.62, 9.02 8.83, 8.78 9.02 C8.55 9.21, 8.29 9.38, 8.02 9.53 C7.75 9.68, 7.47 9.81, 7.17 9.91 C6.88 10.01, 6.58 10.09, 6.27 10.14 C5.97 10.19, 5.66 10.22, 5.35 10.22 C5.04 10.22, 4.72 10.19, 4.42 10.14 C4.11 10.09, 3.81 10.01, 3.52 9.91 C3.23 9.81, 2.94 9.68, 2.67 9.53 C2.41 9.38, 2.15 9.21, 1.91 9.02 C1.67 8.83, 1.45 8.62, 1.25 8.39 C1.05 8.16, 0.87 7.92, 0.72 7.66 C0.56 7.41, 0.43 7.13, 0.32 6.85 C0.22 6.58, 0.13 6.29, 0.08 5.99 C0.03 5.7, 0 5.4, 0 5.11 C0 4.81, 0.03 4.51, 0.08 4.22 C0.13 3.93, 0.22 3.64, 0.32 3.36 C0.43 3.08, 0.56 2.81, 0.72 2.55 C0.87 2.3, 1.05 2.05, 1.25 1.82 C1.45 1.6, 1.67 1.39, 1.91 1.2 C2.15 1, 2.41 0.83, 2.67 0.68 C2.94 0.54, 3.23 0.41, 3.52 0.31 C3.81 0.21, 4.11 0.13, 4.42 0.08 C4.72 0.03, 5.04 0, 5.35 0 C5.66 0, 5.97 0.03, 6.27 0.08 C6.58 0.13, 6.88 0.21, 7.17 0.31 C7.47 0.41, 7.75 0.54, 8.02 0.68 C8.29 0.83, 8.55 1, 8.78 1.2 C9.02 1.39, 9.24 1.6, 9.44 1.82 C9.64 2.05, 9.82 2.3, 9.98 2.55 C10.13 2.81, 10.26 3.08, 10.37 3.36 C10.48 3.64, 10.56 3.93, 10.61 4.22 C10.66 4.51, 10.68 4.96, 10.69 5.11 C10.71 5.26, 10.71 4.96, 10.69 5.11" stroke="#ffff" stroke-width="4" fill="none"></path></g><g stroke-linecap="round" transform="translate(116.21279998573777 28.327397175082552) rotate(0 3.1210914116212507 13.932329147480033)"><path d="M1.56 0 L5.85 0.39 L6.24 1.56 L6.24 26.3 L5.85 27.47 L4.68 27.86 L1.56 27.86 L0.39 27.47 L0 26.3 L0 1.56 L0.39 0.39 L1.56 0" stroke="none" stroke-width="0" fill="#868e96"></path><path d="M1.56 0 M1.56 0 C2.29 0, 3.02 0, 4.68 0 M1.56 0 C2.78 0, 4.01 0, 4.68 0 M4.68 0 C5.72 0, 6.24 0.52, 6.24 1.56 M4.68 0 C5.72 0, 6.24 0.52, 6.24 1.56 M6.24 1.56 C6.24 9.69, 6.24 17.81, 6.24 26.3 M6.24 1.56 C6.24 10.04, 6.24 18.53, 6.24 26.3 M6.24 26.3 C6.24 27.34, 5.72 27.86, 4.68 27.86 M6.24 26.3 C6.24 27.34, 5.72 27.86, 4.68 27.86 M4.68 27.86 C3.98 27.86, 3.27 27.86, 1.56 27.86 M4.68 27.86 C3.82 27.86, 2.95 27.86, 1.56 27.86 M1.56 27.86 C0.52 27.86, 0 27.34, 0 26.3 M1.56 27.86 C0.52 27.86, 0 27.34, 0 26.3 M0 26.3 C0 17.12, 0 7.93, 0 1.56 M0 26.3 C0 20.4, 0 14.49, 0 1.56 M0 1.56 C0 0.52, 0.52 0, 1.56 0 M0 1.56 C0 0.52, 0.52 0, 1.56 0" stroke="#868e96" stroke-width="4" fill="none"></path></g><g stroke-linecap="round" transform="translate(60.980613236513136 1.2269238921178953) rotate(63.01325807023943 7.551095047022272 16.06156009521375)"><path d="M9.78 4.25 L14.66 16.94 L7.97 31.18 L0.5 16.94 L7.97 1.06 L9.78 4.25" stroke="none" stroke-width="0" fill="#34a853"></path><path d="M9.78 4.25 M9.78 4.25 C10.51 6.02, 11.25 7.79, 13.33 12.75 M9.78 4.25 C11.01 7.21, 12.25 10.17, 13.33 12.75 M13.33 12.75 C15.1 17, 15.1 17, 13.33 20.78 M13.33 12.75 C15.1 17, 15.1 17, 13.33 20.78 M13.33 20.78 C12.07 23.47, 10.8 26.15, 9.78 28.34 M13.33 20.78 C12.13 23.33, 10.93 25.89, 9.78 28.34 M9.78 28.34 C8 32.12, 8 32.12, 6 28.34 M9.78 28.34 C8 32.12, 8 32.12, 6 28.34 M6 28.34 C4.54 25.59, 3.09 22.84, 2 20.78 M6 28.34 C5.09 26.62, 4.18 24.9, 2 20.78 M2 20.78 C0 17, 0 17, 2 12.75 M2 20.78 C0 17, 0 17, 2 12.75 M2 12.75 C2.91 10.82, 3.81 8.89, 6 4.25 M2 12.75 C3.12 10.37, 4.24 7.98, 6 4.25 M6 4.25 C8 0, 8 0, 9.78 4.25 M6 4.25 C8 0, 8 0, 9.78 4.25" stroke="#34a853" stroke-width="4" fill="none"></path></g><g stroke-linecap="round" transform="translate(10 28.327397175082552) rotate(0 3.1210914116212507 13.932329147480033)"><path d="M1.56 0 L5.85 0.39 L6.24 1.56 L6.24 26.3 L5.85 27.47 L4.68 27.86 L1.56 27.86 L0.39 27.47 L0 26.3 L0 1.56 L0.39 0.39 L1.56 0" stroke="none" stroke-width="0" fill="#868e96"></path><path d="M1.56 0 M1.56 0 C2.61 0, 3.66 0, 4.68 0 M1.56 0 C2.67 0, 3.78 0, 4.68 0 M4.68 0 C5.72 0, 6.24 0.52, 6.24 1.56 M4.68 0 C5.72 0, 6.24 0.52, 6.24 1.56 M6.24 1.56 C6.24 11.23, 6.24 20.89, 6.24 26.3 M6.24 1.56 C6.24 10.56, 6.24 19.57, 6.24 26.3 M6.24 26.3 C6.24 27.34, 5.72 27.86, 4.68 27.86 M6.24 26.3 C6.24 27.34, 5.72 27.86, 4.68 27.86 M4.68 27.86 C3.8 27.86, 2.92 27.86, 1.56 27.86 M4.68 27.86 C3.97 27.86, 3.27 27.86, 1.56 27.86 M1.56 27.86 C0.52 27.86, 0 27.34, 0 26.3 M1.56 27.86 C0.52 27.86, 0 27.34, 0 26.3 M0 26.3 C0 17.55, 0 8.8, 0 1.56 M0 26.3 C0 17.18, 0 8.06, 0 1.56 M0 1.56 C0 0.52, 0.52 0, 1.56 0 M0 1.56 C0 0.52, 0.52 0, 1.56 0" stroke="#868e96" stroke-width="4" fill="none"></path></g></svg>