<svg version="1.1" xmlns="http://www.w3.org/2000/svg" viewBox="0 0 1526.6636360617872 987.6257920627816" width="4579.990908185362" height="2962.877376188345">
  <!-- svg-source:excalidraw -->
  
  <defs>
    <style>
      @font-face {
        font-family: "Virgil";
        src: url("https://excalidraw.com/Virgil.woff2");
      }
      @font-face {
        font-family: "Cascadia";
        src: url("https://excalidraw.com/Cascadia.woff2");
      }
    </style>
  </defs>
  <g stroke-linecap="round" transform="translate(11.377174805209506 669.9505835711743) rotate(0 752.6432306282888 153.8376042458036)"><path d="M76.92 0 L1428.37 0 L1446.4 1.2 L1462.02 4.81 L1468.93 7.51 L1480.95 14.72 L1486.06 19.23 L1494.47 30.05 L1500.48 43.27 L1502.58 50.78 L1504.08 58.89 L1505.29 76.92 L1505.29 230.76 L1504.08 248.78 L1502.58 256.9 L1497.77 271.32 L1494.47 277.63 L1486.06 288.45 L1475.24 296.86 L1468.93 300.16 L1454.51 304.97 L1437.68 307.37 L76.92 307.68 L58.89 306.47 L50.78 304.97 L36.36 300.16 L24.34 292.95 L14.72 283.34 L10.82 277.63 L7.51 271.32 L2.7 256.9 L0.3 240.07 L0 230.76 L0.3 67.6 L2.7 50.78 L7.51 36.36 L14.72 24.34 L24.34 14.72 L36.36 7.51 L50.78 2.7 L67.6 0.3 L76.92 0" stroke="none" stroke-width="0" fill="#c3d8ef"></path><path d="M76.92 0 M76.92 0 C454.43 0, 831.95 0, 1428.37 0 M76.92 0 C372.35 0, 667.78 0, 1428.37 0 M1428.37 0 C1479.65 0, 1505.29 25.64, 1505.29 76.92 M1428.37 0 C1479.65 0, 1505.29 25.64, 1505.29 76.92 M1505.29 76.92 C1505.29 126.47, 1505.29 176.02, 1505.29 230.76 M1505.29 76.92 C1505.29 128.1, 1505.29 179.28, 1505.29 230.76 M1505.29 230.76 C1505.29 282.04, 1479.65 307.68, 1428.37 307.68 M1505.29 230.76 C1505.29 282.04, 1479.65 307.68, 1428.37 307.68 M1428.37 307.68 C918.16 307.68, 407.95 307.68, 76.92 307.68 M1428.37 307.68 C1152.39 307.68, 876.4 307.68, 76.92 307.68 M76.92 307.68 C25.64 307.68, 0 282.04, 0 230.76 M76.92 307.68 C25.64 307.68, 0 282.04, 0 230.76 M0 230.76 C0 182.38, 0 134, 0 76.92 M0 230.76 C0 172.19, 0 113.63, 0 76.92 M0 76.92 C0 25.64, 25.64 0, 76.92 0 M0 76.92 C0 25.64, 25.64 0, 76.92 0" stroke="#295edb" stroke-width="4" fill="none"></path></g><g stroke-linecap="round" transform="translate(10 338.1671583176221) rotate(0 748.2507569117863 147.89365645347294)"><path d="M73.95 0 L1422.55 0 L1439.89 1.16 L1454.91 4.62 L1461.55 7.22 L1467.62 10.4 L1478.01 18.49 L1486.1 28.89 L1491.88 41.6 L1493.9 48.82 L1495.35 56.62 L1496.5 73.95 L1496.5 221.84 L1495.35 239.17 L1491.88 254.19 L1489.28 260.84 L1486.1 266.9 L1478.01 277.3 L1467.62 285.39 L1454.91 291.17 L1447.69 293.19 L1431.51 295.5 L73.95 295.79 L56.62 294.63 L48.82 293.19 L34.95 288.57 L23.4 281.63 L18.49 277.3 L14.15 272.39 L7.22 260.84 L2.6 246.97 L1.16 239.17 L0 221.84 L0.29 64.99 L2.6 48.82 L7.22 34.95 L14.15 23.4 L23.4 14.15 L34.95 7.22 L41.6 4.62 L56.62 1.16 L73.95 0" stroke="none" stroke-width="0" fill="#feffa0"></path><path d="M73.95 0 M73.95 0 C475.87 0, 877.79 0, 1422.55 0 M73.95 0 C408.43 0, 742.91 0, 1422.55 0 M1422.55 0 C1471.85 0, 1496.5 24.65, 1496.5 73.95 M1422.55 0 C1471.85 0, 1496.5 24.65, 1496.5 73.95 M1496.5 73.95 C1496.5 111.56, 1496.5 149.18, 1496.5 221.84 M1496.5 73.95 C1496.5 129.86, 1496.5 185.78, 1496.5 221.84 M1496.5 221.84 C1496.5 271.14, 1471.85 295.79, 1422.55 295.79 M1496.5 221.84 C1496.5 271.14, 1471.85 295.79, 1422.55 295.79 M1422.55 295.79 C927.98 295.79, 433.4 295.79, 73.95 295.79 M1422.55 295.79 C1018.98 295.79, 615.4 295.79, 73.95 295.79 M73.95 295.79 C24.65 295.79, 0 271.14, 0 221.84 M73.95 295.79 C24.65 295.79, 0 271.14, 0 221.84 M0 221.84 C0 174.8, 0 127.76, 0 73.95 M0 221.84 C0 168.48, 0 115.12, 0 73.95 M0 73.95 C0 24.65, 24.65 0, 73.95 0 M0 73.95 C0 24.65, 24.65 0, 73.95 0" stroke="#dab03f" stroke-width="4" fill="none"></path></g><g stroke-linecap="round" transform="translate(10.449885862207793 10) rotate(0 745.4963148362945 139.73438006651077)"><path d="M69.87 0 L1421.13 0 L1437.5 1.09 L1451.69 4.37 L1457.97 6.82 L1463.7 9.83 L1473.53 17.47 L1477.62 22.11 L1484.17 33.02 L1488.54 46.12 L1490.72 61.41 L1490.99 69.87 L1490.99 209.6 L1489.9 225.98 L1488.54 233.35 L1484.17 246.45 L1481.17 252.18 L1473.53 262 L1468.89 266.1 L1457.97 272.65 L1444.87 277.01 L1429.59 279.2 L69.87 279.47 L53.49 278.38 L46.12 277.01 L33.02 272.65 L27.29 269.64 L17.47 262 L13.37 257.36 L6.82 246.45 L2.46 233.35 L1.09 225.98 L0 209.6 L0.27 61.41 L2.46 46.12 L6.82 33.02 L13.37 22.11 L17.47 17.47 L27.29 9.83 L39.3 4.37 L53.49 1.09 L69.87 0" stroke="none" stroke-width="0" fill="#c1e5cb"></path><path d="M69.87 0 M69.87 0 C442.63 0, 815.4 0, 1421.13 0 M69.87 0 C350.58 0, 631.29 0, 1421.13 0 M1421.13 0 C1467.7 0, 1490.99 23.29, 1490.99 69.87 M1421.13 0 C1467.7 0, 1490.99 23.29, 1490.99 69.87 M1490.99 69.87 C1490.99 108.08, 1490.99 146.3, 1490.99 209.6 M1490.99 69.87 C1490.99 124.4, 1490.99 178.94, 1490.99 209.6 M1490.99 209.6 C1490.99 256.18, 1467.7 279.47, 1421.13 279.47 M1490.99 209.6 C1490.99 256.18, 1467.7 279.47, 1421.13 279.47 M1421.13 279.47 C932.89 279.47, 444.66 279.47, 69.87 279.47 M1421.13 279.47 C929.01 279.47, 436.89 279.47, 69.87 279.47 M69.87 279.47 C23.29 279.47, 0 256.18, 0 209.6 M69.87 279.47 C23.29 279.47, 0 256.18, 0 209.6 M0 209.6 C0 175.52, 0 141.44, 0 69.87 M0 209.6 C0 164.98, 0 120.35, 0 69.87 M0 69.87 C0 23.29, 23.29 0, 69.87 0 M0 69.87 C0 23.29, 23.29 0, 69.87 0" stroke="#0a9768" stroke-width="4" fill="none"></path></g><g transform="translate(-29.630912781008647 113.15378323713048) rotate(269.77244559926913 94 34)"><text x="0" y="55" font-family="Helvetica, Segoe UI Emoji" font-size="59.6491228070175px" fill="#000000" text-anchor="start" style="white-space: pre;" direction="ltr">Cliente</text></g><g transform="translate(-51.21630138721366 458.8311142265047) rotate(269.77244559926913 115.5 34)"><text x="0" y="55" font-family="Helvetica, Segoe UI Emoji" font-size="59.6491228070175px" fill="#000000" text-anchor="start" style="white-space: pre;" direction="ltr">Soluci칩n</text></g><g transform="translate(-54.057438864041615 785.8307987589942) rotate(269.77244559926913 118.5 34)"><text x="0" y="55" font-family="Helvetica, Segoe UI Emoji" font-size="59.6491228070175px" fill="#000000" text-anchor="start" style="white-space: pre;" direction="ltr">Esfuerzo</text></g><g stroke-linecap="round"><g transform="translate(180.75791669853015 50.49671657581598) rotate(0 89.10410320920255 72.00330836201806)" fill-rule="evenodd"><path d="M0 0 L150.94 0 L179.18 74.37 L153.54 142.99 L-0.97 144.01 L0 0" stroke="none" stroke-width="0" fill="#ffff" fill-rule="evenodd"></path><path d="M0 0 C48.66 0, 97.31 0, 150.94 0 M150.94 0 C160.68 25.65, 170.42 51.3, 179.18 74.37 M179.18 74.37 C172.49 92.28, 165.79 110.2, 153.54 142.99 M153.54 142.99 C99 143.35, 44.46 143.71, -0.97 144.01 M-0.97 144.01 C-0.76 111.97, -0.54 79.93, 0 0 M0 0 C0 0, 0 0, 0 0" stroke="#0a9768" stroke-width="4.5" fill="none" stroke-dasharray="8 12"></path></g></g><g transform="translate(184.08617566501016 208.87710023506133) rotate(0 81.03558283646953 32.2768846891023)"><text x="0" y="25.276884689102268" font-family="Helvetica, Segoe UI Emoji" font-size="27.469689097108315px" fill="#000000" text-anchor="start" style="white-space: pre;" direction="ltr">Explorar </text><text x="0" y="57.553769378204535" font-family="Helvetica, Segoe UI Emoji" font-size="27.469689097108315px" fill="#000000" text-anchor="start" style="white-space: pre;" direction="ltr">posibilidades</text></g><g stroke-linecap="round"><g transform="translate(485.6845599958642 50.49671657581598) rotate(0 89.10410320920255 72.00330836201806)" fill-rule="evenodd"><path d="M0 0 L150.94 0 L179.18 74.37 L153.54 142.99 L-0.97 144.01 L0 0" stroke="none" stroke-width="0" fill="#ffff" fill-rule="evenodd"></path><path d="M0 0 C44.99 0, 89.99 0, 150.94 0 M150.94 0 C161.58 28.02, 172.22 56.04, 179.18 74.37 M179.18 74.37 C172.38 92.56, 165.58 110.76, 153.54 142.99 M153.54 142.99 C113.98 143.25, 74.42 143.51, -0.97 144.01 M-0.97 144.01 C-0.75 111.59, -0.54 79.17, 0 0 M0 0 C0 0, 0 0, 0 0" stroke="#0a9768" stroke-width="4.5" fill="none" stroke-dasharray="8 12"></path></g></g><g transform="translate(490.61302338849373 214.0083408088924) rotate(0 78 31)"><text x="0" y="24" font-family="Helvetica, Segoe UI Emoji" font-size="27.469689097108315px" fill="#000000" text-anchor="start" style="white-space: pre;" direction="ltr">Entender las</text><text x="0" y="55" font-family="Helvetica, Segoe UI Emoji" font-size="27.469689097108315px" fill="#000000" text-anchor="start" style="white-space: pre;" direction="ltr">necesidades</text></g><g stroke-linecap="round"><g transform="translate(842.6228950435575 50.49671657581598) rotate(0 89.10410320920255 72.00330836201806)" fill-rule="evenodd"><path d="M0 0 L150.94 0 L179.18 74.37 L153.54 142.99 L-0.97 144.01 L0 0" stroke="none" stroke-width="0" fill="#ffff" fill-rule="evenodd"></path><path d="M0 0 C52.64 0, 105.28 0, 150.94 0 M150.94 0 C156.71 15.2, 162.49 30.41, 179.18 74.37 M179.18 74.37 C172.03 93.52, 164.87 112.67, 153.54 142.99 M153.54 142.99 C100.54 143.34, 47.55 143.69, -0.97 144.01 M-0.97 144.01 C-0.77 113.44, -0.56 82.87, 0 0 M0 0 C0 0, 0 0, 0 0" stroke="#0a9768" stroke-width="4.5" fill="none" stroke-dasharray="8 12"></path></g></g><g transform="translate(789.6373939012756 214.9724278980907) rotate(0 150 31)"><text x="0" y="24" font-family="Helvetica, Segoe UI Emoji" font-size="27.469689097108315px" fill="#000000" text-anchor="start" style="white-space: pre;" direction="ltr">Asegurar la satisfacci칩n </text><text x="0" y="55" font-family="Helvetica, Segoe UI Emoji" font-size="27.469689097108315px" fill="#000000" text-anchor="start" style="white-space: pre;" direction="ltr">          del cliente</text></g><g stroke-linecap="round"><g transform="translate(1215.3820213882818 50.49671657581598) rotate(0 89.10410320920255 72.00330836201806)" fill-rule="evenodd"><path d="M0 0 L150.94 0 L179.18 74.37 L153.54 142.99 L-0.97 144.01 L0 0" stroke="none" stroke-width="0" fill="#ffff" fill-rule="evenodd"></path><path d="M0 0 C30.96 0, 61.93 0, 150.94 0 M150.94 0 C162.13 29.45, 173.31 58.91, 179.18 74.37 M179.18 74.37 C169.73 99.65, 160.29 124.93, 153.54 142.99 M153.54 142.99 C97.35 143.36, 41.17 143.73, -0.97 144.01 M-0.97 144.01 C-0.67 98.44, -0.36 52.87, 0 0 M0 0 C0 0, 0 0, 0 0" stroke="#0a9768" stroke-width="4.5" fill="none" stroke-dasharray="8 12"></path></g></g><g transform="translate(1231.5545457000326 215.52328857366615) rotate(0 56.99999999999977 31)"><text x="0" y="24" font-family="Helvetica, Segoe UI Emoji" font-size="27.469689097108315px" fill="#000000" text-anchor="start" style="white-space: pre;" direction="ltr">Utilizar el</text><text x="0" y="55" font-family="Helvetica, Segoe UI Emoji" font-size="27.469689097108315px" fill="#000000" text-anchor="start" style="white-space: pre;" direction="ltr">sistema</text></g><g stroke-linecap="round"><g transform="translate(185.41747608591413 367.95058928034905) rotate(0 89.10410320920255 72.00330836201812)" fill-rule="evenodd"><path d="M0 0 L150.94 0 L179.18 74.37 L153.54 142.99 L-0.97 144.01 L0 0" stroke="none" stroke-width="0" fill="#ffff" fill-rule="evenodd"></path><path d="M0 0 C33.36 0, 66.71 0, 150.94 0 M150.94 0 C160.52 25.23, 170.1 50.45, 179.18 74.37 M179.18 74.37 C169.48 100.33, 159.78 126.29, 153.54 142.99 M153.54 142.99 C105.42 143.31, 57.31 143.62, -0.97 144.01 M-0.97 144.01 C-0.75 111.63, -0.54 79.25, 0 0 M0 0 C0 0, 0 0, 0 0" stroke="#dab03f" stroke-width="4.5" fill="none" stroke-dasharray="8 12"></path></g></g><g transform="translate(176.04927253121105 536.1175683469698) rotate(0 97 31)"><text x="0" y="24" font-family="Helvetica, Segoe UI Emoji" font-size="27.469689097108315px" fill="#000000" text-anchor="start" style="white-space: pre;" direction="ltr">Entender</text><text x="0" y="55" font-family="Helvetica, Segoe UI Emoji" font-size="27.469689097108315px" fill="#000000" text-anchor="start" style="white-space: pre;" direction="ltr">Requerimientos</text></g><g stroke-linecap="round"><g transform="translate(396.70212153183957 367.95058928034905) rotate(0 89.10410320920255 72.00330836201812)" fill-rule="evenodd"><path d="M0 0 L150.94 0 L179.18 74.37 L153.54 142.99 L-0.97 144.01 L0 0" stroke="none" stroke-width="0" fill="#ffff" fill-rule="evenodd"></path><path d="M0 0 C52.57 0, 105.15 0, 150.94 0 M150.94 0 C158.24 19.22, 165.54 38.44, 179.18 74.37 M179.18 74.37 C169.4 100.54, 159.62 126.71, 153.54 142.99 M153.54 142.99 C110.35 143.28, 67.16 143.56, -0.97 144.01 M-0.97 144.01 C-0.78 114.99, -0.58 85.97, 0 0 M0 0 C0 0, 0 0, 0 0" stroke="#dab03f" stroke-width="4.5" fill="none" stroke-dasharray="8 12"></path></g></g><g transform="translate(405.77681502220366 536.530656062981) rotate(0 62.5 31)"><text x="0" y="24" font-family="Helvetica, Segoe UI Emoji" font-size="27.469689097108315px" fill="#000000" text-anchor="start" style="white-space: pre;" direction="ltr">Dise침ar el</text><text x="0" y="55" font-family="Helvetica, Segoe UI Emoji" font-size="27.469689097108315px" fill="#000000" text-anchor="start" style="white-space: pre;" direction="ltr">Sistema</text></g><g stroke-linecap="round"><g transform="translate(602.5369863427959 367.95058928034905) rotate(0 89.10410320920255 72.00330836201812)" fill-rule="evenodd"><path d="M0 0 L150.94 0 L179.18 74.37 L153.54 142.99 L-0.97 144.01 L0 0" stroke="none" stroke-width="0" fill="#ffff" fill-rule="evenodd"></path><path d="M0 0 C46.88 0, 93.76 0, 150.94 0 M150.94 0 C162.2 29.64, 173.45 59.28, 179.18 74.37 M179.18 74.37 C173.8 88.77, 168.42 103.17, 153.54 142.99 M153.54 142.99 C100.92 143.34, 48.3 143.68, -0.97 144.01 M-0.97 144.01 C-0.59 87.73, -0.21 31.46, 0 0 M0 0 C0 0, 0 0, 0 0" stroke="#dab03f" stroke-width="4.5" fill="none" stroke-dasharray="8 12"></path></g></g><g transform="translate(608.3997882304357 539.2850981384727) rotate(0 77 31)"><text x="0" y="24" font-family="Helvetica, Segoe UI Emoji" font-size="27.469689097108315px" fill="#000000" text-anchor="start" style="white-space: pre;" direction="ltr">Implementar</text><text x="0" y="55" font-family="Helvetica, Segoe UI Emoji" font-size="27.469689097108315px" fill="#000000" text-anchor="start" style="white-space: pre;" direction="ltr">el sistema</text></g><g stroke-linecap="round"><g transform="translate(808.3718511537522 367.95058928034905) rotate(0 89.10410320920255 72.00330836201812)" fill-rule="evenodd"><path d="M0 0 L150.94 0 L179.18 74.37 L153.54 142.99 L-0.97 144.01 L0 0" stroke="none" stroke-width="0" fill="#ffff" fill-rule="evenodd"></path><path d="M0 0 C58.31 0, 116.62 0, 150.94 0 M150.94 0 C160.76 25.86, 170.58 51.71, 179.18 74.37 M179.18 74.37 C172.24 92.95, 165.3 111.53, 153.54 142.99 M153.54 142.99 C115.07 143.24, 76.6 143.5, -0.97 144.01 M-0.97 144.01 C-0.76 112.03, -0.54 80.06, 0 0 M0 0 C0 0, 0 0, 0 0" stroke="#dab03f" stroke-width="4.5" fill="none" stroke-dasharray="8 12"></path></g></g><g transform="translate(825.4623102309065 538.7341912303597) rotate(0 56 31)"><text x="0" y="24" font-family="Helvetica, Segoe UI Emoji" font-size="27.469689097108315px" fill="#000000" text-anchor="start" style="white-space: pre;" direction="ltr">Probar el</text><text x="0" y="55" font-family="Helvetica, Segoe UI Emoji" font-size="27.469689097108315px" fill="#000000" text-anchor="start" style="white-space: pre;" direction="ltr">Sistema</text></g><g stroke-linecap="round"><g transform="translate(1014.2067159647086 367.95058928034905) rotate(0 89.10410320920255 72.00330836201812)" fill-rule="evenodd"><path d="M0 0 L150.94 0 L179.18 74.37 L153.54 142.99 L-0.97 144.01 L0 0" stroke="none" stroke-width="0" fill="#ffff" fill-rule="evenodd"></path><path d="M0 0 C50.51 0, 101.03 0, 150.94 0 M150.94 0 C159.89 23.55, 168.83 47.1, 179.18 74.37 M179.18 74.37 C170.34 98.02, 161.5 121.68, 153.54 142.99 M153.54 142.99 C112.18 143.26, 70.83 143.54, -0.97 144.01 M-0.97 144.01 C-0.64 94.53, -0.3 45.05, 0 0 M0 0 C0 0, 0 0, 0 0" stroke="#dab03f" stroke-width="4.5" fill="none" stroke-dasharray="8 12"></path></g></g><g transform="translate(1033.7375816240706 529.782370066354) rotate(0 63 46.5)"><text x="0" y="24" font-family="Helvetica, Segoe UI Emoji" font-size="27.469689097108315px" fill="#000000" text-anchor="start" style="white-space: pre;" direction="ltr">Por en </text><text x="0" y="55" font-family="Helvetica, Segoe UI Emoji" font-size="27.469689097108315px" fill="#000000" text-anchor="start" style="white-space: pre;" direction="ltr">operaci칩n</text><text x="0" y="86" font-family="Helvetica, Segoe UI Emoji" font-size="27.469689097108315px" fill="#000000" text-anchor="start" style="white-space: pre;" direction="ltr">al sistema</text></g><g stroke-linecap="round"><g transform="translate(1220.041580775665 367.95058928034905) rotate(0 89.10410320920278 72.00330836201812)" fill-rule="evenodd"><path d="M0 0 L150.94 0 L179.18 74.37 L153.54 142.99 L-0.97 144.01 L0 0" stroke="none" stroke-width="0" fill="#ffff" fill-rule="evenodd"></path><path d="M0 0 C34.03 0, 68.07 0, 150.94 0 M150.94 0 C158.35 19.51, 165.76 39.01, 179.18 74.37 M179.18 74.37 C169.51 100.25, 159.84 126.14, 153.54 142.99 M153.54 142.99 C92.16 143.4, 30.78 143.8, -0.97 144.01 M-0.97 144.01 C-0.61 90.61, -0.25 37.21, 0 0 M0 0 C0 0, 0 0, 0 0" stroke="#dab03f" stroke-width="4.5" fill="none" stroke-dasharray="8 12"></path></g></g><g transform="translate(1241.159695057931 544.6562093298908) rotate(0 57.5 31)"><text x="0" y="24" font-family="Helvetica, Segoe UI Emoji" font-size="27.469689097108315px" fill="#000000" text-anchor="start" style="white-space: pre;" direction="ltr">Operar el</text><text x="0" y="55" font-family="Helvetica, Segoe UI Emoji" font-size="27.469689097108315px" fill="#000000" text-anchor="start" style="white-space: pre;" direction="ltr">Sistema</text></g><g stroke-linecap="round"><g transform="translate(184.20363561765635 702.346117412367) rotate(0 89.10410320920255 72.00330836201812)" fill-rule="evenodd"><path d="M0 0 L150.94 0 L179.18 74.37 L153.54 142.99 L-0.97 144.01 L0 0" stroke="none" stroke-width="0" fill="#ffff" fill-rule="evenodd"></path><path d="M0 0 C44.13 0, 88.26 0, 150.94 0 M150.94 0 C159.1 21.49, 167.26 42.98, 179.18 74.37 M179.18 74.37 C172.49 92.28, 165.8 110.19, 153.54 142.99 M153.54 142.99 C111.64 143.27, 69.73 143.54, -0.97 144.01 M-0.97 144.01 C-0.69 102.55, -0.41 61.09, 0 0 M0 0 C0 0, 0 0, 0 0" stroke="#295edb" stroke-width="4.5" fill="none" stroke-dasharray="8 12"></path></g></g><g transform="translate(201.30714421038056 870.2734172383493) rotate(0 62.5 31)"><text x="0" y="24" font-family="Helvetica, Segoe UI Emoji" font-size="27.469689097108315px" fill="#000000" text-anchor="start" style="white-space: pre;" direction="ltr">Planear el</text><text x="0" y="55" font-family="Helvetica, Segoe UI Emoji" font-size="27.469689097108315px" fill="#000000" text-anchor="start" style="white-space: pre;" direction="ltr">trabajo</text></g><g stroke-linecap="round"><g transform="translate(436.18757439121964 702.346117412367) rotate(0 89.10410320920255 72.00330836201812)" fill-rule="evenodd"><path d="M0 0 L150.94 0 L179.18 74.37 L153.54 142.99 L-0.97 144.01 L0 0" stroke="none" stroke-width="0" fill="#ffff" fill-rule="evenodd"></path><path d="M0 0 C52.03 0, 104.07 0, 150.94 0 M150.94 0 C158.79 20.68, 166.65 41.35, 179.18 74.37 M179.18 74.37 C170.26 98.25, 161.33 122.13, 153.54 142.99 M153.54 142.99 C93.94 143.38, 34.34 143.77, -0.97 144.01 M-0.97 144.01 C-0.74 108.71, -0.5 73.41, 0 0 M0 0 C0 0, 0 0, 0 0" stroke="#295edb" stroke-width="4.5" fill="none" stroke-dasharray="8 12"></path></g></g><g transform="translate(450.3878040298873 875.920131924412) rotate(0 71 31)"><text x="0" y="24" font-family="Helvetica, Segoe UI Emoji" font-size="27.469689097108315px" fill="#000000" text-anchor="start" style="white-space: pre;" direction="ltr">Coordinar</text><text x="0" y="55" font-family="Helvetica, Segoe UI Emoji" font-size="27.469689097108315px" fill="#000000" text-anchor="start" style="white-space: pre;" direction="ltr">Actividades</text></g><g stroke-linecap="round"><g transform="translate(692.9785165834164 702.346117412367) rotate(0 89.10410320920255 72.00330836201812)" fill-rule="evenodd"><path d="M0 0 L150.94 0 L179.18 74.37 L153.54 142.99 L-0.97 144.01 L0 0" stroke="none" stroke-width="0" fill="#ffff" fill-rule="evenodd"></path><path d="M0 0 C59.49 0, 118.97 0, 150.94 0 M150.94 0 C156.72 15.23, 162.5 30.45, 179.18 74.37 M179.18 74.37 C173.8 88.77, 168.42 103.17, 153.54 142.99 M153.54 142.99 C121.64 143.2, 89.74 143.41, -0.97 144.01 M-0.97 144.01 C-0.69 102.24, -0.41 60.47, 0 0 M0 0 C0 0, 0 0, 0 0" stroke="#295edb" stroke-width="4.5" fill="none" stroke-dasharray="8 12"></path></g></g><g transform="translate(687.1977037728602 880.2519180461302) rotate(0 94.5 31)"><text x="0" y="24" font-family="Helvetica, Segoe UI Emoji" font-size="27.469689097108315px" fill="#000000" text-anchor="start" style="white-space: pre;" direction="ltr">Brindar soporte</text><text x="0" y="55" font-family="Helvetica, Segoe UI Emoji" font-size="27.469689097108315px" fill="#000000" text-anchor="start" style="white-space: pre;" direction="ltr">a los equipos</text></g><g stroke-linecap="round"><g transform="translate(960.3246068223843 702.346117412367) rotate(0 89.10410320920255 72.00330836201812)" fill-rule="evenodd"><path d="M0 0 L150.94 0 L179.18 74.37 L153.54 142.99 L-0.97 144.01 L0 0" stroke="none" stroke-width="0" fill="#ffff" fill-rule="evenodd"></path><path d="M0 0 C40.43 0, 80.85 0, 150.94 0 M150.94 0 C161.22 27.06, 171.49 54.11, 179.18 74.37 M179.18 74.37 C171.28 95.51, 163.38 116.64, 153.54 142.99 M153.54 142.99 C104.6 143.31, 55.67 143.63, -0.97 144.01 M-0.97 144.01 C-0.72 106.18, -0.46 68.36, 0 0 M0 0 C0 0, 0 0, 0 0" stroke="#295edb" stroke-width="4.5" fill="none" stroke-dasharray="8 12"></path></g></g><g transform="translate(948.025817344173 886.6808206587777) rotate(0 99 31)"><text x="0" y="24" font-family="Helvetica, Segoe UI Emoji" font-size="27.469689097108315px" fill="#000000" text-anchor="start" style="white-space: pre;" direction="ltr">Seguimiento del</text><text x="0" y="55" font-family="Helvetica, Segoe UI Emoji" font-size="27.469689097108315px" fill="#000000" text-anchor="start" style="white-space: pre;" direction="ltr">       Avance</text></g><g stroke-linecap="round"><g transform="translate(1218.8277403074085 702.346117412367) rotate(0 89.10410320920278 72.00330836201812)" fill-rule="evenodd"><path d="M0 0 L150.94 0 L179.18 74.37 L153.54 142.99 L-0.97 144.01 L0 0" stroke="none" stroke-width="0" fill="#ffff" fill-rule="evenodd"></path><path d="M0 0 C41.88 0, 83.76 0, 150.94 0 M150.94 0 C159.6 22.8, 168.26 45.6, 179.18 74.37 M179.18 74.37 C169.16 101.18, 159.14 127.99, 153.54 142.99 M153.54 142.99 C99.78 143.35, 46.02 143.7, -0.97 144.01 M-0.97 144.01 C-0.71 105.68, -0.46 67.36, 0 0 M0 0 C0 0, 0 0, 0 0" stroke="#295edb" stroke-width="4.5" fill="none" stroke-dasharray="8 12"></path></g></g><g transform="translate(1232.289037916882 885.4100069545034) rotate(0 67.50000000000023 31)"><text x="0" y="24" font-family="Helvetica, Segoe UI Emoji" font-size="27.469689097108315px" fill="#000000" text-anchor="start" style="white-space: pre;" direction="ltr">Detener el </text><text x="0" y="55" font-family="Helvetica, Segoe UI Emoji" font-size="27.469689097108315px" fill="#000000" text-anchor="start" style="white-space: pre;" direction="ltr">Trabajo</text></g></svg>