<svg version="1.1" xmlns="http://www.w3.org/2000/svg" viewBox="0 0 180.74791192502698 170.1096878913395" width="180.74791192502698" height="170.1096878913395">
  <!-- svg-source:excalidraw -->
  
  <defs>
    <style>
      @font-face {
        font-family: "Virgil";
        src: url("https://excalidraw.com/Virgil.woff2");
      }
      @font-face {
        font-family: "Cascadia";
        src: url("https://excalidraw.com/Cascadia.woff2");
      }
    </style>
  </defs>
  <g stroke-linecap="round"><g stroke-opacity="0.5" fill-opacity="0.5" transform="translate(81.86453193959233 13.77971561295817) rotate(0 1.2199031810143879 71.19042046937057)" fill-rule="evenodd"><path d="M0.74 -2.84 L70.64 36.48 L70.44 109.24 L1.34 146 L-70.63 110.01 L-72.59 32.55 L1.2 0.03" stroke="none" stroke-width="0" fill="#74bb92" fill-rule="evenodd"></path><path d="M1.4 3.65 C17.28 4.69, 34.46 12.62, 72.43 34.21 M-0.01 1.38 C15.74 6.44, 28.45 12.89, 68.96 37.21 M71.78 39.86 C71.94 51.94, 68.76 71.09, 74.3 106.58 M69.87 35.24 C69.61 62.55, 69.49 88.12, 71.86 108.9 M71.29 105.53 C51.81 112.94, 39.94 120.6, -2.68 141.46 M71.77 108.18 C47.15 121, 23.59 133.36, 1.87 144.31 M1.08 141.98 C-24.86 133.61, -54.05 120.72, -67.57 109.62 M-0.8 143.47 C-18.37 134.43, -40.11 125.43, -71.27 108.13 M-69.35 110.42 C-74.01 84.73, -70.94 68.84, -70.03 40.06 M-69.89 109.07 C-69.29 87.03, -71.94 65.05, -70.96 34.76 M-69.08 36.29 C-50.43 25.93, -33.23 14.99, -3.27 0.15 M-71.68 35.69 C-48.12 24.07, -22.58 14.85, -0.33 -1.93 M0 0 C0 0, 0 0, 0 0 M0 0 C0 0, 0 0, 0 0" stroke="#74bb92" stroke-width="1" fill="none"></path></g></g><g stroke-linecap="round"><g transform="translate(92.97782331167218 10.49601952625244) rotate(359.96680990276155 1.1798496190458536 74.55830979030839)" fill-rule="evenodd"><path d="M-2.84 -0.08 L74.41 36.71 L74.9 112.32 L1.47 148.07 L-72.44 109.11 L-77.64 38.19 L0.03 -0.59" stroke="none" stroke-width="0" fill="#74bb92" fill-rule="evenodd"></path><path d="M3.65 -0.49 C25.32 12.61, 51.88 28.6, 72.14 33.44 M1.38 1.26 C17.67 7.79, 34.01 15.74, 75.14 35.58 M77.79 38.84 C74.02 54.63, 76.6 78.52, 72.24 112.92 M73.17 35.47 C75.14 59.62, 75.53 86.68, 74.57 109.08 M71.19 107.11 C54.51 118.33, 38.01 125.24, -3.07 149.61 M73.85 111.35 C50.04 124.67, 26.1 137.6, -0.22 149.4 M-2.55 149.41 C-19.14 135.66, -41.08 129.08, -72.83 109.94 M-1.06 149.12 C-22.56 134.33, -45.34 123.18, -74.33 110.66 M-72.03 108.73 C-76.87 84.29, -72.25 56.65, -70.13 36.97 M-73.38 112.11 C-72.7 88.81, -73.04 69.45, -75.43 36.19 M-73.9 38.7 C-54.74 26.98, -36.39 13.22, 0.15 1.16 M-74.5 35.89 C-57.08 29.98, -36.61 19.6, -1.93 1.69 M0 0 C0 0, 0 0, 0 0 M0 0 C0 0, 0 0, 0 0" stroke="#004d00" stroke-width="4" fill="none"></path></g></g></svg>